HIERARCHY
ROOT Hips
{
  OFFSET 53.8909 86.367 6.81958
  CHANNELS 6 Xposition Yposition Zposition Zrotation Xrotation Yrotation
  JOINT spine
  {
    OFFSET 0 6.84637 0.3937
    CHANNELS 3 Zrotation Xrotation Yrotation
    JOINT spine1
    {
      OFFSET 0 9.49621 0
      CHANNELS 3 Zrotation Xrotation Yrotation
      JOINT spine2
      {
        OFFSET 0 9.09909 0
        CHANNELS 3 Zrotation Xrotation Yrotation
        JOINT Neck
        {
          OFFSET 0 23.3612 1.11378
          CHANNELS 3 Zrotation Xrotation Yrotation
          JOINT Head
          {
            OFFSET 0 7.05802 0
            CHANNELS 3 Zrotation Xrotation Yrotation
            End Site
            {
              OFFSET 0 17.0844 -5.63419
            }
          }
        }
        JOINT RightShoulder
        {
          OFFSET -3.83136 9.82631 -0.533491
          CHANNELS 3 Zrotation Xrotation Yrotation
          JOINT RightArm
          {
            OFFSET 0 12.8881 0
            CHANNELS 3 Zrotation Xrotation Yrotation
            JOINT RightArmRoll
            {
              OFFSET 0 6.50617 0
              CHANNELS 3 Zrotation Xrotation Yrotation
              JOINT RightForeArm
              {
                OFFSET 0 18.9501 0
                CHANNELS 3 Zrotation Xrotation Yrotation
                JOINT RightForeArmRoll
                {
                  OFFSET 0 7.30092 0
                  CHANNELS 3 Zrotation Xrotation Yrotation
                  JOINT RightHand
                  {
                    OFFSET 0 14.6514 0
                    CHANNELS 3 Zrotation Xrotation Yrotation
                    End Site
                    {
                      OFFSET 0 0 0
                    }
                  }
                }
              }
            }
          }
        }
        JOINT LeftShoulder
        {
          OFFSET 3.83136 9.82631 -0.533491
          CHANNELS 3 Zrotation Xrotation Yrotation
          JOINT LeftArm
          {
            OFFSET 0 12.8881 0
            CHANNELS 3 Zrotation Xrotation Yrotation
            JOINT LeftArmRoll
            {
              OFFSET 0 6.50617 0
              CHANNELS 3 Zrotation Xrotation Yrotation
              JOINT LeftForeArm
              {
                OFFSET 0 18.9501 0
                CHANNELS 3 Zrotation Xrotation Yrotation
                JOINT LeftForeArmRoll
                {
                  OFFSET 0 7.30092 0
                  CHANNELS 3 Zrotation Xrotation Yrotation
                  JOINT LeftHand
                  {
                    OFFSET 0 14.6514 0
                    CHANNELS 3 Zrotation Xrotation Yrotation
                    End Site
                    {
                      OFFSET 0 0 0
                    }
                  }
                }
              }
            }
          }
        }
      }
    }
  }
  JOINT RightUpLeg
  {
    OFFSET -6.06837 -1.11278 -0.933477
    CHANNELS 3 Zrotation Xrotation Yrotation
    JOINT RightUpLegRoll
    {
      OFFSET 0 17.1796 0
      CHANNELS 3 Zrotation Xrotation Yrotation
      JOINT RightLeg
      {
        OFFSET 0 -21.2743 0
        CHANNELS 3 Zrotation Xrotation Yrotation
        JOINT RightLegRoll
        {
          OFFSET 0 21.3439 0
          CHANNELS 3 Zrotation Xrotation Yrotation
          JOINT RightFoot
          {
            OFFSET 0 17.7652 0
            CHANNELS 3 Zrotation Xrotation Yrotation
            JOINT RightToeBase
            {
              OFFSET 0 14.8508 0
              CHANNELS 3 Zrotation Xrotation Yrotation
              End Site
              {
                OFFSET 0.0062947 7.19213 -0.829005
              }
            }
          }
        }
      }
    }
  }
  JOINT LeftUpLeg
  {
    OFFSET 6.06837 -1.11278 -0.933477
    CHANNELS 3 Zrotation Xrotation Yrotation
    JOINT LeftUpLegRoll
    {
      OFFSET 0 17.1797 0
      CHANNELS 3 Zrotation Xrotation Yrotation
      JOINT LeftLeg
      {
        OFFSET 0 21.2742 0
        CHANNELS 3 Zrotation Xrotation Yrotation
        JOINT LeftLegRoll
        {
          OFFSET 0 21.5412 0
          CHANNELS 3 Zrotation Xrotation Yrotation
          JOINT LeftFoot
          {
            OFFSET 0 17.5679 0
            CHANNELS 3 Zrotation Xrotation Yrotation
            JOINT LeftToeBase
            {
              OFFSET 0 14.8508 0
              CHANNELS 3 Zrotation Xrotation Yrotation
              End Site
              {
                OFFSET -0.0282102 7.19213 -0.829005
              }
            }
          }
        }
      }
    }
  }
}
MOTION
Frames: 9
Frame Time: 0.00208333
52.5198 86.6675 7.21721 1.30083 1.74476 -0.262497 1.05691 -2.12448 1.01223 2.15296 -0.24734 1.91995 2.13056 1.39669 1.88419 -14.6409 12.4644 -0.554995 11.9347 12.2131 -5.16034 54.0353 -9.66074 -5.96357 87.2985 10.7648 36.5898 2.91314e-006 -2.47403e-006 -7.64338e-006 7.53263 0.0564938 -0.32329 -9.93156e-006 2.34571e-006 -3.0063 8.02919 -4.95143 0.69767 -73.8656 -8.85382 5.73008 -87.1041 18.6204 -34.1999 1.77466e-007 4.09153e-007 3.01131e-006 -10.895 5.24569 -0.206483 5.94095e-006 -1.4789e-006 3.00369 -8.02891 -4.95142 -0.69769 178.287 17.3084 -1.80396 180 7.01533e-015 178.863 176.345 24.5993 -179.738 2.31669e-006 -6.61368e-007 0.657101 -24.7552 72.2034 24.1172 8.13497 25.2371 -3.48709 179.096 12.9504 2.32981 4.5067e-006 -1.99009e-005 -1.17791 -1.87973 -23.4396 0.283492 4.81458e-006 -8.30554e-006 -0.735827 27.2875 75.1573 -28.4616 -8.12921 25.2352 3.48463 
52.5241 86.671 7.21441 1.30457 1.7455 -0.267213 1.05599 -2.12446 1.01389 2.15112 -0.245938 1.9238 2.12867 1.39809 1.88808 -14.6297 12.4563 -0.56359 11.9224 12.198 -5.16289 54.0442 -9.65952 -5.9628 87.31 10.7644 36.5479 2.91314e-006 -2.47403e-006 -7.64338e-006 7.55797 0.0534365 -0.32164 -9.93156e-006 2.34571e-006 -3.0063 8.02919 -4.95143 0.69767 -73.856 -8.85123 5.72874 -87.1171 18.6392 -34.1855 1.77466e-007 4.09153e-007 3.01131e-006 -10.8992 5.24139 -0.206147 5.94095e-006 -1.4789e-006 3.00369 -8.02891 -4.95142 -0.69769 178.287 17.3055 -1.80819 180 7.01533e-015 178.863 176.351 24.5917 -179.741 2.31669e-006 -6.61368e-007 0.65715 -24.7479 72.2003 24.1127 8.13497 25.2371 -3.48709 179.093 12.9477 2.3361 4.5067e-006 -1.99009e-005 -1.17791 -1.87601 -23.4259 0.284862 4.81458e-006 -8.30554e-006 -0.735824 27.2655 75.1487 -28.4439 -8.12921 25.2352 3.48463 
52.5225 86.685 7.2162 1.30818 1.74536 -0.272192 1.05506 -2.12432 1.01568 2.1493 -0.244244 1.92791 2.12679 1.39979 1.89224 -14.6174 12.449 -0.572671 11.909 12.1824 -5.16561 54.0536 -9.65855 -5.9622 87.3207 10.7636 36.5061 2.91314e-006 -2.47403e-006 -7.64338e-006 7.58334 0.048744 -0.319731 -9.93156e-006 2.34571e-006 -3.0063 8.02919 -4.95143 0.69767 -73.8461 -8.84854 5.72735 -87.1305 18.658 -34.1711 1.77466e-007 4.09153e-007 3.01131e-006 -10.9034 5.23583 -0.205971 5.94095e-006 -1.4789e-006 3.00369 -8.02891 -4.95142 -0.69769 178.287 17.3012 -1.81267 180 7.01533e-015 178.863 176.357 24.5835 -179.744 2.31669e-006 -6.61368e-007 0.657187 -24.7402 72.197 24.1081 8.13497 25.2371 -3.48709 179.09 12.9439 2.34204 4.5067e-006 -1.99009e-005 -1.17791 -1.87225 -23.4116 0.286252 4.81458e-006 -8.30554e-006 -0.73582 27.2428 75.1399 -28.4257 -8.12921 25.2352 3.48463 
52.5191 86.6795 7.2196 1.31171 1.74459 -0.277354 1.05414 -2.1241 1.01755 2.14748 -0.242345 1.93221 2.12492 1.40168 1.89657 -14.6044 12.4422 -0.582093 11.8948 12.1664 -5.16846 54.0634 -9.65774 -5.96172 87.3306 10.7625 36.4645 2.91314e-006 -2.47403e-006 -7.64338e-006 7.60875 0.0429069 -0.317642 -9.93156e-006 2.34571e-006 -3.0063 8.02919 -4.95143 0.69767 -73.8359 -8.84577 5.72592 -87.1442 18.6769 -34.1567 1.77466e-007 4.09153e-007 3.01131e-006 -10.9076 5.2294 -0.205907 5.94095e-006 -1.4789e-006 3.00369 -8.02891 -4.95142 -0.69769 178.288 17.296 -1.81732 180 7.01533e-015 178.863 176.364 24.575 -179.748 2.31669e-006 -6.61368e-007 0.657215 -24.7324 72.1937 24.1033 8.13497 25.2371 -3.48709 179.087 12.9394 2.34774 4.5067e-006 -1.99009e-005 -1.17791 -1.86845 -23.3971 0.287657 4.81458e-006 -8.30554e-006 -0.735814 27.2196 75.1308 -28.4072 -8.12921 25.2352 3.48463 
52.5187 86.6867 7.21429 1.31518 1.74347 -0.282621 1.05321 -2.12383 1.01947 2.14567 -0.240329 1.9366 2.12306 1.4037 1.90101 -14.5909 12.4358 -0.591708 11.8803 12.1501 -5.17138 54.0734 -9.65702 -5.96131 87.3402 10.7612 36.423 2.91314e-006 -2.47403e-006 -7.64338e-006 7.63417 0.0364158 -0.31545 -9.93156e-006 2.34571e-006 -3.0063 8.02919 -4.95143 0.69767 -73.8257 -8.84297 5.72447 -87.1581 18.6958 -34.1423 1.77466e-007 4.09153e-007 3.01131e-006 -10.9118 5.22246 -0.205906 5.94095e-006 -1.4789e-006 3.00369 -8.02891 -4.95142 -0.69769 178.288 17.2903 -1.82207 180 7.01533e-015 178.863 176.37 24.5661 -179.751 2.31669e-006 -6.61368e-007 0.657238 -24.7245 72.1903 24.0985 8.13497 25.2371 -3.48709 179.085 12.9345 2.3533 4.5067e-006 -1.99009e-005 -1.17791 -1.86464 -23.3823 0.289069 4.81458e-006 -8.30554e-006 -0.735808 27.1962 75.1217 -28.3884 -8.12921 25.2352 3.48463 
52.5193 86.6837 7.20616 1.31863 1.74226 -0.287915 1.05227 -2.12355 1.0214 2.14387 -0.238284 1.94102 2.1212 1.40574 1.90548 -14.5772 12.4294 -0.601372 11.8656 12.1338 -5.17432 54.0834 -9.65634 -5.96092 87.3497 10.7599 36.3814 2.91314e-006 -2.47403e-006 -7.64338e-006 7.65959 0.0297612 -0.313232 -9.93156e-006 2.34571e-006 -3.0063 8.02919 -4.95143 0.69767 -73.8154 -8.84016 5.72301 -87.172 18.7146 -34.1279 1.77466e-007 4.09153e-007 3.01131e-006 -10.916 5.2154 -0.205921 5.94095e-006 -1.4789e-006 3.00369 -8.02891 -4.95142 -0.69769 178.289 17.2844 -1.82685 180 7.01533e-015 178.863 176.377 24.5572 -179.754 2.31669e-006 -6.61368e-007 0.65726 -24.7165 72.1869 24.0936 8.13497 25.2371 -3.48709 179.082 12.9295 2.35882 4.5067e-006 -1.99009e-005 -1.17791 -1.86083 -23.3675 0.290484 4.81458e-006 -8.30554e-006 -0.735802 27.1727 75.1125 -28.3696 -8.12921 25.2352 3.48463 
52.5225 86.6889 7.20841 1.32212 1.74123 -0.293156 1.05134 -2.1233 1.02331 2.14206 -0.236297 1.94539 2.11934 1.40773 1.90989 -14.5639 12.4229 -0.610938 11.8511 12.1177 -5.17722 54.0933 -9.6556 -5.96049 87.3594 10.7586 36.3399 2.91314e-006 -2.47403e-006 -7.64338e-006 7.68501 0.0234335 -0.311066 -9.93156e-006 2.34571e-006 -3.0063 8.02919 -4.95143 0.69767 -73.8051 -8.83737 5.72157 -87.1859 18.7335 -34.1135 1.77466e-007 4.09153e-007 3.01131e-006 -10.9201 5.20859 -0.205905 5.94095e-006 -1.4789e-006 3.00369 -8.02891 -4.95142 -0.69769 178.29 17.2788 -1.83158 180 7.01533e-015 178.863 176.383 24.5485 -179.757 2.31669e-006 -6.61368e-007 0.657284 -24.7086 72.1835 24.0888 8.13497 25.2371 -3.48709 179.08 12.9247 2.36442 4.5067e-006 -1.99009e-005 -1.17791 -1.85702 -23.3528 0.291894 4.81458e-006 -8.30554e-006 -0.735796 27.1494 75.1033 -28.3509 -8.12921 25.2352 3.48463 
52.5211 86.6894 7.20254 1.32566 1.74064 -0.298265 1.05042 -2.1231 1.02516 2.14024 -0.234456 1.94963 2.11747 1.40957 1.91417 -14.551 12.4159 -0.62026 11.8372 12.1017 -5.18004 54.103 -9.65474 -5.95997 87.3695 10.7575 36.2982 2.91314e-006 -2.47403e-006 -7.64338e-006 7.71041 0.0179235 -0.309029 -9.93156e-006 2.34571e-006 -3.0063 8.02919 -4.95143 0.69767 -73.795 -8.83462 5.72015 -87.1995 18.7524 -34.0991 1.77466e-007 4.09153e-007 3.01131e-006 -10.9243 5.2024 -0.205808 5.94095e-006 -1.4789e-006 3.00369 -8.02891 -4.95142 -0.69769 178.29 17.2738 -1.83618 180 7.01533e-015 178.863 176.39 24.54 -179.76 2.31669e-006 -6.61368e-007 0.657315 -24.7009 72.1802 24.0841 8.13497 25.2371 -3.48709 179.077 12.9204 2.37018 4.5067e-006 -1.99009e-005 -1.17791 -1.85324 -23.3383 0.293293 4.81458e-006 -8.30554e-006 -0.73579 27.1264 75.0943 -28.3326 -8.12921 25.2352 3.48463 
52.5185 86.6875 7.20563 1.32931 1.74076 -0.303166 1.04949 -2.123 1.02691 2.13841 -0.23285 1.95366 2.11559 1.41117 1.91825 -14.5391 12.4084 -0.629192 11.8241 12.0863 -5.18271 54.1122 -9.65369 -5.95932 87.3804 10.7568 36.2564 2.91314e-006 -2.47403e-006 -7.64338e-006 7.73578 0.0137215 -0.307197 -9.93156e-006 2.34571e-006 -3.0063 8.02919 -4.95143 0.69767 -73.7852 -8.83196 5.71877 -87.2128 18.7712 -34.0847 1.77466e-007 4.09153e-007 3.01131e-006 -10.9286 5.19722 -0.205584 5.94095e-006 -1.4789e-006 3.00369 -8.02891 -4.95142 -0.69769 178.29 17.2699 -1.84058 180 7.01533e-015 178.863 176.396 24.532 -179.764 2.31669e-006 -6.61368e-007 0.657355 -24.6934 72.177 24.0795 8.13497 25.2371 -3.48709 179.074 12.917 2.37623 4.5067e-006 -1.99009e-005 -1.17791 -1.8495 -23.3242 0.294675 4.81458e-006 -8.30554e-006 -0.735786 27.1041 75.0855 -28.3147 -8.12921 25.2352 3.48463 
